<svg width="63" height="64" viewBox="0 0 63 64" fill="none" xmlns="http://www.w3.org/2000/svg">
<g clip-path="url(#clip0_26_485)">
<path d="M38.632 2.11749C37.8833 1.73709 36.9847 1.81311 36.3108 2.3457L16.5426 17.0305H3.21408C1.94123 17.0305 0.967773 18.0197 0.967773 19.3132V44.7262C0.967773 46.0198 1.94123 47.0088 3.21408 47.0088H16.5426L36.2358 61.6936C36.6102 61.998 37.0595 62.1502 37.5836 62.1502C37.958 62.1502 38.2575 62.0741 38.6319 61.922C39.3806 61.5416 39.8299 60.7806 39.8299 59.8676V4.17182C39.8301 3.33486 39.3807 2.49789 38.632 2.11749ZM15.045 42.4436H5.46053V21.5957H15.045V42.4436ZM35.3373 55.3783L19.5378 43.5848V20.4544L35.3373 8.66088V55.3783Z" fill="white"/>
<path d="M48.3664 41.3785C52.1852 39.7046 54.4315 36.2045 54.4315 32.0199C54.4315 27.8352 52.1852 24.3351 48.3664 22.6612C47.2431 22.1286 45.8953 22.6612 45.3712 23.8026C44.8471 24.9439 45.3712 26.3134 46.4944 26.846C48.6659 27.8352 49.8639 29.7373 49.8639 32.096C49.8639 34.4547 48.6659 36.3569 46.4944 37.346C45.3712 37.8786 44.8471 39.2482 45.3712 40.3895C45.7456 41.2265 46.5692 41.7591 47.3929 41.7591C47.7674 41.6067 48.0668 41.5307 48.3664 41.3785Z" fill="white"/>
<path d="M48.6663 14.2151C47.4682 13.9869 46.2702 14.7477 46.0454 16.0412C45.8209 17.2586 46.5696 18.4759 47.8426 18.7043C54.0575 19.9217 58.5503 25.5521 58.5503 32.0956C58.5503 38.6391 54.0575 44.1934 47.8426 45.4869C46.6445 45.7151 45.8209 46.9326 46.0454 48.15C46.27 49.2152 47.1687 49.9761 48.2169 49.9761C48.3667 49.9761 48.5165 49.9761 48.6663 49.9001C56.9779 48.1501 62.9682 40.6936 62.9682 32.0196C62.9682 23.3455 56.9779 15.813 48.6663 14.2151Z" fill="white"/>
</g>
<defs>
<clipPath id="clip0_26_485">
<rect width="62" height="63" fill="white" transform="translate(0.967773 0.514648)"/>
</clipPath>
</defs>
</svg>
