<svg width="36" height="29" viewBox="0 0 36 29" fill="none" xmlns="http://www.w3.org/2000/svg">
<path fill-rule="evenodd" clip-rule="evenodd" d="M18.4517 1.1946C19.183 0.278227 20.4783 0.162154 21.345 0.935343L34.4856 12.6585C34.9431 13.0666 35.2093 13.6654 35.2147 14.2982C35.2201 14.931 34.9641 15.5348 34.5136 15.9515L21.373 28.1088C20.5196 28.8984 19.2225 28.8069 18.4758 27.9046C17.729 27.0023 17.8155 25.6308 18.6689 24.8412L27.697 16.4887H2.77392C1.63996 16.4887 0.720703 15.5167 0.720703 14.3177C0.720703 13.1187 1.63996 12.1468 2.77392 12.1468H27.5442L18.6969 4.25382C17.8302 3.48063 17.7204 2.11097 18.4517 1.1946Z" fill="white"/>
</svg>
